<svg id="ac2df02f-ff1e-4c81-a104-9c7f0a6b8bf0" data-name="Layer 1" xmlns="http://www.w3.org/2000/svg" viewBox="0 0 50 74.36"><g id="f3576626-fc4d-474b-8fbe-9583400c21c7" data-name="e8b88147-0395-4178-9e78-625aa4eb7b59"><circle cx="25" cy="24.59" r="22.25" style="fill:#76c2af"/><path d="M46.86,58.28a1,1,0,0,1-.53,1.31,1,1,0,0,1-.47.08H44.49a2,2,0,0,1-1.81-1.39l-2.22-7A1,1,0,0,1,41,50a1,1,0,0,1,.47-.08h1.39a2,2,0,0,1,1.81,1.39Z" transform="translate(-27 -26.81)" style="fill:#231f20;isolation:isolate;opacity:0.20000000298023224"/><path d="M46.44,61.76a1,1,0,0,1-.53,1.31,1,1,0,0,1-.47.08H44c-.76,0-1.39-.07-1.66-.84L40,54.81a1,1,0,0,1,.53-1.31,1,1,0,0,1,.47-.08h1.39a2,2,0,0,1,1.8,1.39Z" transform="translate(-27 -26.81)" style="fill:#231f20;isolation:isolate;opacity:0.20000000298023224"/><path d="M46.86,56.89a1,1,0,0,1-.53,1.31,1,1,0,0,1-.47.08H44.49a2,2,0,0,1-1.81-1.39l-2.22-7A1,1,0,0,1,41,48.58a1,1,0,0,1,.47-.08h1.39a2,2,0,0,1,1.81,1.39Z" transform="translate(-27 -26.81)" style="fill:#c85d5d"/><path d="M46.44,60.37a1,1,0,0,1-.53,1.31,1,1,0,0,1-.47.08H44a1.84,1.84,0,0,1-1.8-1.11L40,53.42a1,1,0,0,1,.48-1.33A.93.93,0,0,1,41,52h1.39a2,2,0,0,1,1.8,1.39Z" transform="translate(-27 -26.81)" style="fill:#515e73"/><path d="M63.12,49.24V42A1.06,1.06,0,1,0,61,42v.7c-2,1.74-4.38,4.45-11.13,4.45H39.49a1.39,1.39,0,0,0-1.39,1.39,1.39,1.39,0,0,0-1.39,1.39V54.1a1.39,1.39,0,0,0,1.38,1.4h0a1.39,1.39,0,0,0,1.39,1.39H49.91c6.75,0,9.18,2.71,11.13,4.45v.77a1,1,0,0,0,2.08,0v-7.3a1.39,1.39,0,0,0,1.39-1.39V50.64A1.4,1.4,0,0,0,63.12,49.24Z" transform="translate(-27 -26.81)" style="fill:#231f20;isolation:isolate;opacity:0.20000000298023224"/><path d="M64.51,52a1.39,1.39,0,0,1-1.39,1.39H57.56A1.4,1.4,0,0,1,56.17,52V49.24a1.4,1.4,0,0,1,1.39-1.39h5.56a1.39,1.39,0,0,1,1.39,1.39Z" transform="translate(-27 -26.81)" style="fill:#e1e0d1"/><path d="M45.05,52.72a1.39,1.39,0,0,1-1.39,1.39H38.1a1.39,1.39,0,0,1-1.39-1.39V48.55a1.39,1.39,0,0,1,1.39-1.39h5.56a1.4,1.4,0,0,1,1.39,1.39Z" transform="translate(-27 -26.81)" style="fill:#515e73"/><path d="M61.8,40.69c-2.08,1.6-4.24,5.08-11.89,5.08h-9l-.7,9.73h9.73c7.65,0,9.81,3.48,11.89,5.08Z" transform="translate(-27 -26.81)" style="fill:#fff"/><path d="M42.27,55.5H39.49a1.39,1.39,0,0,1-1.39-1.39v-7a1.39,1.39,0,0,1,1.39-1.39h2.78Z" transform="translate(-27 -26.81)" style="fill:#c85d5d"/><path d="M63.12,60.72a1.06,1.06,0,0,1-1,1h0a1.06,1.06,0,0,1-1-1V40.62a1.06,1.06,0,0,1,1-1h0a1.06,1.06,0,0,1,1,1Z" transform="translate(-27 -26.81)" style="fill:#515e73"/><path d="M52,26.81a25,25,0,0,0-25,25h0c0,15.77,19.42,43.19,23.6,49a1,1,0,0,0,1.4.2,1,1,0,0,0,.2-.2C56.57,95.1,77,67.6,77,51.77A25,25,0,0,0,52,26.81Zm2.4,44.63A19.74,19.74,0,1,1,71.47,49.35a19.3,19.3,0,0,1,.1,4.09A19.8,19.8,0,0,1,54.4,71.44Z" transform="translate(-27 -26.81)" style="fill:#414042"/></g></svg>