<svg id="ac1d7a20-e744-437b-b971-45d524546fc9" data-name="Layer 1" xmlns="http://www.w3.org/2000/svg" viewBox="0 0 50 74.36"><g id="ba02955c-4f87-4516-93a6-0405578f9098" data-name="Layer 1"><g id="bd65d977-b906-4262-807e-8105a5706898" data-name="Layer 2"><g id="e0aa0a58-4b8e-458a-b6b1-3d273f6b7077" data-name="Layer 1-2"><path d="M52,26.23a25,25,0,0,0-25,25c0,15.77,19.42,43.22,23.6,49a1,1,0,0,0,1.4.2,1,1,0,0,0,.2-.2C56.57,94.52,77,67,77,51.19A25,25,0,0,0,52,26.23Zm2.4,44.62A19.74,19.74,0,1,1,71.47,48.76a20.2,20.2,0,0,1,.1,4A19.8,19.8,0,0,1,54.4,70.85Z" transform="translate(-27 -26.23)" style="fill:#414042"/><circle cx="25" cy="25.18" r="20.32" style="fill:#1c75bc"/><g style="opacity:0.20000000298023224"><path d="M65.09,60.35a2.76,2.76,0,0,1-2.75,2.75h-22a2.76,2.76,0,0,1-2.74-2.75V46.6a2.76,2.76,0,0,1,2.74-2.75h22a2.76,2.76,0,0,1,2.75,2.75Z" transform="translate(-27 -26.23)" style="fill:#231f20"/></g><path d="M55.46,40.42V54.16H47.22V40.42h8.24m0-2.75H47.22a2.76,2.76,0,0,0-2.75,2.75V54.16a2.75,2.75,0,0,0,2.75,2.75h8.24a2.75,2.75,0,0,0,2.75-2.75V40.42A2.75,2.75,0,0,0,55.46,37.67Z" transform="translate(-27 -26.23)" style="fill:#e19a5f"/><path d="M37.6,48.67V59a2.76,2.76,0,0,0,2.74,2.75h22A2.75,2.75,0,0,0,65.09,59V48.67Z" transform="translate(-27 -26.23)" style="fill:#e19a5f"/><g style="opacity:0.20000000298023224"><path d="M65.09,46.6a2.76,2.76,0,0,0-2.75-2.75h-22A2.76,2.76,0,0,0,37.6,46.6V50H65.09Z" transform="translate(-27 -26.23)" style="fill:#231f20"/></g><g style="opacity:0.20000000298023224"><path d="M56.84,51.41a2.75,2.75,0,0,1-2.75,2.75h-5.5a2.75,2.75,0,0,1-2.75-2.75V49.35a2.76,2.76,0,0,1,2.75-2.75h5.5a2.76,2.76,0,0,1,2.75,2.75Z" transform="translate(-27 -26.23)" style="fill:#231f20"/></g><path d="M54.09,48v2h-5.5V48h5.5m0-2.75h-5.5A2.76,2.76,0,0,0,45.84,48v2a2.76,2.76,0,0,0,2.75,2.75h5.5A2.76,2.76,0,0,0,56.84,50V48A2.76,2.76,0,0,0,54.09,45.25Z" transform="translate(-27 -26.23)" style="fill:#f5cf87"/><path d="M65.09,45.23a2.76,2.76,0,0,0-2.75-2.75h-22a2.76,2.76,0,0,0-2.74,2.75v3.44H65.09Z" transform="translate(-27 -26.23)" style="fill:#e19a5f"/></g></g></g></svg>